<?xml version="1.0" encoding="UTF-8" standalone="no"?> <svg id="Flat_gradient" data-name="Flat gradient" xmlns="http://www.w3.org/2000/svg" xmlns:xlink="http://www.w3.org/1999/xlink" viewBox="0 0 64 64"><defs><style>.cls-1{fill:url(#linear-gradient);}</style><linearGradient id="linear-gradient" x1="4.2716" y1="31.27" x2="59.7284" y2="31.27" gradientUnits="userSpaceOnUse"><stop offset="0" stop-color="#00c0ff"/><stop offset="1" stop-color="#5558ff"/></linearGradient></defs><title>1</title><path class="cls-1" d="M14.36556,27.315v4.66121H9.83466a.538.538,0,0,1-.54327-.54327V27.8583a.538.538,0,0,1,.54327-.54327Zm-4.5309,10.887a.538.538,0,0,0-.54327.54326v3.57475a.538.538,0,0,0,.54327.54327h4.5309V38.20207Zm0-11.97358h4.5309v-4.444h-7.019A3.08139,3.08139,0,0,0,4.2716,24.87032V59.27h10.094V54.82611H9.83466a1.62769,1.62769,0,0,1-1.62981-1.6298V49.62156a1.62764,1.62764,0,0,1,1.62981-1.6298h4.5309V43.94988H9.83466a1.62769,1.62769,0,0,1-1.62981-1.6298V38.74533a1.62769,1.62769,0,0,1,1.62981-1.6298h4.5309V33.06278H9.83466A1.62764,1.62764,0,0,1,8.20485,31.433V27.8583A1.62764,1.62764,0,0,1,9.83466,26.22849Zm0,22.8498a.538.538,0,0,0-.54327.54327v3.57475a.538.538,0,0,0,.54327.54326h4.5309V49.07829ZM53.709,27.315H49.53669v4.66121H53.709a.538.538,0,0,0,.54327-.54327V27.8583A.538.538,0,0,0,53.709,27.315Zm0,10.887H49.53669v4.66128H53.709a.538.538,0,0,0,.54327-.54327V38.74533A.538.538,0,0,0,53.709,38.20207Zm2.91191-16.41753H49.53669v4.444H53.709a1.6276,1.6276,0,0,1,1.6298,1.62981V31.433a1.6276,1.6276,0,0,1-1.6298,1.62981H49.53669v4.05275H53.709a1.62764,1.62764,0,0,1,1.6298,1.6298v3.57475a1.62764,1.62764,0,0,1-1.6298,1.6298H49.53669v4.04188H53.709a1.62759,1.62759,0,0,1,1.6298,1.6298v3.57475a1.62764,1.62764,0,0,1-1.6298,1.6298H49.53669V59.27H59.7284V24.90289A3.11615,3.11615,0,0,0,56.62086,21.78454ZM53.709,49.07829H49.53669v4.66128H53.709a.538.538,0,0,0,.54327-.54326V49.62156A.538.538,0,0,0,53.709,49.07829ZM41.77884,13.36381c-.5527,13.40746-19.64674,13.39991-20.19874.00008a10.09937,10.09937,0,0,1,20.19874-.00008Zm-2.79243.815V12.55986a1.69719,1.69719,0,0,0-1.695-1.695H34.80328a.61682.61682,0,0,1-.60846-.61933V7.7574A1.70648,1.70648,0,0,0,32.489,6.0624H30.88084a1.69944,1.69944,0,0,0-1.7058,1.695v2.48814a.62615.62615,0,0,1-.61934.61933H26.07837a1.69954,1.69954,0,0,0-1.70587,1.695v1.61893a1.69954,1.69954,0,0,0,1.70587,1.695H28.5557a.62615.62615,0,0,1,.61934.61933v2.47734a1.70173,1.70173,0,0,0,1.7058,1.7058H32.489a1.70873,1.70873,0,0,0,1.70587-1.7058V16.49311a.61682.61682,0,0,1,.60846-.61933h2.48814A1.69719,1.69719,0,0,0,38.98641,14.17879Zm2.2057,25.30538H22.29725a.54485.54485,0,0,0-.54327.54327v2.021a.55206.55206,0,0,0,.54327.54327H41.19211a.55211.55211,0,0,0,.54327-.54327v-2.021A.5449.5449,0,0,0,41.19211,39.48417Zm7.258-21.66545V59.27H40.96392V43.67825h.22819a1.62768,1.62768,0,0,0,1.6298-1.62981v-2.021a1.62767,1.62767,0,0,0-1.6298-1.6298H22.29725a1.6346,1.6346,0,0,0-1.6298,1.6298v2.02095a1.751,1.751,0,0,0,2.1513,1.62986V59.27H15.45209V17.81872a3.91371,3.91371,0,0,1,3.90062-3.91156l1.15172-.00011c1.15674,14.10105,21.17823,14.13783,22.35005.00011h1.695A3.91373,3.91373,0,0,1,48.45016,17.81872ZM30.19638,29.16209a1.63466,1.63466,0,0,0-1.6298-1.62981H20.60226a1.62764,1.62764,0,0,0-1.62981,1.62981v4.87859a1.62764,1.62764,0,0,0,1.62981,1.62981h7.96432a1.63466,1.63466,0,0,0,1.6298-1.62981Zm14.45091,0a1.62769,1.62769,0,0,0-1.62981-1.62981H35.05316a1.63461,1.63461,0,0,0-1.6298,1.62981v4.87859a1.63461,1.63461,0,0,0,1.6298,1.62981h7.96432a1.62769,1.62769,0,0,0,1.62981-1.62981Zm-16.08071-.54327H20.60226a.54485.54485,0,0,0-.54327.54327v4.87859a.538.538,0,0,0,.54327.54327h7.96432a.5449.5449,0,0,0,.54327-.54327V29.16209A.55211.55211,0,0,0,28.56658,28.61882Zm14.4509,0H35.05316a.55207.55207,0,0,0-.54327.54327v4.87859a.54486.54486,0,0,0,.54327.54327h7.96432a.538.538,0,0,0,.54327-.54327V29.16209A.5449.5449,0,0,0,43.01748,28.61882ZM32.29339,43.67825V59.27h7.584V43.67825Zm-8.38809,0V59.27h7.30155V43.67825ZM37.29142,11.95141H34.80328a1.70649,1.70649,0,0,1-1.695-1.70587V7.7574a.61682.61682,0,0,0-.61934-.60846H30.88084a.60988.60988,0,0,0-.61927.60846v2.48814a1.7088,1.7088,0,0,1-1.70587,1.70587H26.07837a.6099.6099,0,0,0-.61933.60845v1.61893a.6099.6099,0,0,0,.61933.60846H28.5557a1.70879,1.70879,0,0,1,1.70587,1.70586v2.47734a.6122.6122,0,0,0,.61927.61926H32.489a.619.619,0,0,0,.61934-.61926V16.49311a1.70648,1.70648,0,0,1,1.695-1.70586h2.48814a.60747.60747,0,0,0,.60846-.60846V12.55986A.60746.60746,0,0,0,37.29142,11.95141Z"/></svg>